<svg width="128" height="128" viewBox="0 0 128 128" fill="none" xmlns="http://www.w3.org/2000/svg">
<g clip-path="url(#clip0_24_12)">
<rect width="128" height="128" fill="white"/>
<rect width="128" height="128" fill="#222222"/>
<mask id="path-2-outside-1_24_12" maskUnits="userSpaceOnUse" x="37" y="35" width="56" height="57" fill="black">
<rect fill="white" x="37" y="35" width="56" height="57"/>
<path d="M40.742 83.174L69.036 42.926H47.364L48.654 36.39H91.138L90.364 43.7L62.328 84.464H84.946L83.742 91H39.194L40.742 83.174Z"/>
</mask>
<path d="M40.742 83.174L69.036 42.926H47.364L48.654 36.39H91.138L90.364 43.7L62.328 84.464H84.946L83.742 91H39.194L40.742 83.174Z" fill="#FFCE05"/>
<path d="M40.742 83.174L39.9239 82.5989L39.8021 82.7722L39.761 82.98L40.742 83.174ZM69.036 42.926L69.8541 43.5011L70.9614 41.926H69.036V42.926ZM47.364 42.926L46.3829 42.7324L46.1473 43.926H47.364V42.926ZM48.654 36.39V35.39H47.8321L47.6729 36.1964L48.654 36.39ZM91.138 36.39L92.1324 36.4953L92.2495 35.39H91.138V36.39ZM90.364 43.7L91.1879 44.2667L91.3317 44.0576L91.3584 43.8053L90.364 43.7ZM62.328 84.464L61.5041 83.8973L60.4266 85.464H62.328V84.464ZM84.946 84.464L85.9295 84.6452L86.147 83.464H84.946V84.464ZM83.742 91V92H84.5746L84.7255 91.1812L83.742 91ZM39.194 91L38.213 90.806L37.9768 92H39.194V91ZM41.5601 83.7491L69.8541 43.5011L68.2179 42.3509L39.9239 82.5989L41.5601 83.7491ZM69.036 41.926H47.364V43.926H69.036V41.926ZM48.3451 43.1196L49.6351 36.5836L47.6729 36.1964L46.3829 42.7324L48.3451 43.1196ZM48.654 37.39H91.138V35.39H48.654V37.39ZM90.1436 36.2847L89.3696 43.5947L91.3584 43.8053L92.1324 36.4953L90.1436 36.2847ZM89.5401 43.1333L61.5041 83.8973L63.1519 85.0307L91.1879 44.2667L89.5401 43.1333ZM62.328 85.464H84.946V83.464H62.328V85.464ZM83.9626 84.2828L82.7585 90.8188L84.7255 91.1812L85.9295 84.6452L83.9626 84.2828ZM83.742 90H39.194V92H83.742V90ZM40.175 91.194L41.723 83.368L39.761 82.98L38.213 90.806L40.175 91.194Z" fill="#FFCE05" mask="url(#path-2-outside-1_24_12)"/>
</g>
<defs>
<clipPath id="clip0_24_12">
<rect width="128" height="128" fill="white"/>
</clipPath>
</defs>
</svg>
